# xmcd
#
# Track frame offsets:
# 150
# 12372
# 26599
# 44772
# 57932
# 77058
# 90178
# 105591
# 127867
# 153818
# 164809
# 181644
# 192642
# 208399
# 224925
# 244424
#
# Disc length: 3444 seconds
#
#
# Revision: 0
# Processed by: cddbd v1.5.1PL0 Copyright (c) Steve Scherf et al.
# Submitted via: FreeRIP 2.941 
#
DISCID=e30d7210
DTITLE=16 Finalistas - Prêmio Syngenta de música instrumental de Viola 2004
DYEAR=2004
DGENRE=Acoustic
TTITLE0=Irapuru - Júlio Santin
TTITLE1=Bravio - Mario Freitas
TTITLE2=Amazônia - Fernando Deghi
TTITLE3=Pagode Cuyabá - João Ormond
TTITLE4=Vaquejada - Levi Lemos
TTITLE5=Lufada em viola de cocho - Daniel de Paula
TTITLE6=Moda Barroca - Renato Anesi
TTITLE7=Esplendor - Sidnei de Oliveira
TTITLE8=Improviso Violado - Vinícius Alves
TTITLE9=Da Bahia a Minas - Zeca Collares
TTITLE10=Cascalho - Cláudio Moura
TTITLE11=Vola ao pé do Toco - Lopinho
TTITLE12=Novos Rumos - Fernando Caselato
TTITLE13=Violinha Inzibida - Bilora
TTITLE14=Cactus - Rogério Gulin
TTITLE15=Eta Pagode - Neto Stéfani
EXTD=Ótima músicas de Viola\nGravado ao vivo
EXTT0=
EXTT1=
EXTT2=
EXTT3=
EXTT4=
EXTT5=
EXTT6=
EXTT7=
EXTT8=
EXTT9=
EXTT10=
EXTT11=
EXTT12=
EXTT13=
EXTT14=
EXTT15=
PLAYORDER=
